<?xml version="1.0" encoding="UTF-8" standalone="no"?>

<svg
   width="210mm"
   height="297mm"
   viewBox="0 0 210 297"
   version="1.1">
  <g>
    <path
       style="fill:none;fill-rule:evenodd;stroke:#000000;stroke-width:1.32291663;stroke-linecap:round;stroke-linejoin:miter;stroke-miterlimit:4;stroke-dasharray:none;stroke-opacity:1"
       d="m 58.208333,151.47917 c 0,0 -7.9375,15.875 7.9375,26.45833 7.9375,5.29167 31.75,5.29167 39.687497,0 15.875,-10.58333 5.29167,-23.8125 5.29167,-23.8125" />
    <path
       style="fill:none;fill-rule:evenodd;stroke:#000000;stroke-width:1.32291663;stroke-linecap:round;stroke-linejoin:miter;stroke-miterlimit:4;stroke-dasharray:none;stroke-opacity:1"
       d="m 63.5,143.54167 c 0,0 5.291667,-31.75 10.583333,-31.75 5.291667,0 5.291665,13.22918 5.291665,13.22918" />
    <path
       d="m 108.47917,143.54167 c 0,0 -10.583345,-34.39584 -15.875003,-34.39584 -5.291661,0 -5.292036,15.87501 -5.292036,15.87501"
       style="fill:none;fill-rule:evenodd;stroke:#000000;stroke-width:1.32291663;stroke-linecap:round;stroke-linejoin:miter;stroke-miterlimit:4;stroke-dasharray:none;stroke-opacity:1" />
    <path
       style="fill:none;fill-rule:evenodd;stroke:#000000;stroke-width:1.32291663;stroke-linecap:round;stroke-linejoin:miter;stroke-miterlimit:4;stroke-dasharray:none;stroke-opacity:1"
       d="m 79.374998,125.02085 c 0,0 1.322918,-1.32292 3.968751,-1.32292 2.645834,0 3.968749,1.32292 3.968749,1.32292" />
    <ellipse
       style="fill:none;fill-opacity:1;stroke:#000000;stroke-width:1.32291663;stroke-linecap:round;stroke-linejoin:miter;stroke-miterlimit:4;stroke-dasharray:none;stroke-opacity:1"
       cx="75.340103"
       cy="136.86093"
       rx="6.5484385"
       ry="6.5484376" />
    <ellipse
       ry="6.5484376"
       rx="6.5484385"
       cy="136.86093"
       cx="92.53801"
       style="fill:none;fill-opacity:1;stroke:#000000;stroke-width:1.32291663;stroke-linecap:round;stroke-linejoin:miter;stroke-miterlimit:4;stroke-dasharray:none;stroke-opacity:1" />
    <ellipse
       ry="0.9921906"
       rx="0.99218857"
       cy="136.59636"
       cx="75.075508"
       style="fill:#000000;fill-opacity:1;stroke:#000000;stroke-width:1.32291675;stroke-linecap:round;stroke-linejoin:miter;stroke-miterlimit:4;stroke-dasharray:none;stroke-opacity:1" />
    <ellipse
       style="fill:#000000;fill-opacity:1;stroke:#000000;stroke-width:1.32291675;stroke-linecap:round;stroke-linejoin:miter;stroke-miterlimit:4;stroke-dasharray:none;stroke-opacity:1"
       cx="92.273415"
       cy="136.59636"
       rx="0.99218857"
       ry="0.9921906" />
    <path
       d="m 80.696939,147.51041 c 0,0 0.550428,1.32292 1.651283,1.32292 1.100856,0 1.651283,-1.32292 1.651283,-1.32292"
       style="fill:none;fill-rule:evenodd;stroke:#000000;stroke-width:1.32291675;stroke-linecap:round;stroke-linejoin:miter;stroke-miterlimit:4;stroke-dasharray:none;stroke-opacity:1" />
    <path
       d="m 58.208333,151.47917 c 0,0 -10.583333,-2.64584 -2.645833,-14.55208 3.281755,-4.92263 7.9375,-6.61459 11.90625,-5.29167 C 63.5,138.25 63.5,143.54167 63.5,143.54167"
       style="fill:#fffaff;fill-opacity:1;fill-rule:evenodd;stroke:#000000;stroke-width:1.32299995;stroke-linecap:round;stroke-linejoin:round;stroke-miterlimit:4;stroke-dasharray:none;stroke-opacity:1" />
    <path
       style="fill:#ffffff;fill-opacity:1;fill-rule:evenodd;stroke:#000000;stroke-width:1.32291663;stroke-linecap:round;stroke-linejoin:round;stroke-miterlimit:4;stroke-dasharray:none;stroke-opacity:1"
       d="m 111.13167,154.12499 c 0,0 3.61145,-1.94455 5.285,-5.29166 2.64583,-5.29166 0,-10.58333 -2.64584,-13.22916 -3.74177,-3.74177 -13.22916,-5.29167 -13.22916,-2.64584 3.29291,5.58948 7.85372,6.0534 7.9375,10.58334" />
    <ellipse
       style="fill:none;fill-opacity:1;stroke:#000000;stroke-width:1.32291651;stroke-linecap:round;stroke-linejoin:miter;stroke-miterlimit:4;stroke-dasharray:none;stroke-opacity:1"
       cx="92.53801"
       cy="136.86093"
       rx="8.6651125"
       ry="8.6651096" />
    <path
       style="fill:none;stroke:#000000;stroke-width:1.32299995;stroke-linecap:round;stroke-linejoin:round;stroke-miterlimit:4;stroke-dasharray:none;stroke-opacity:1"
       d="M 76.687225,128.23367 H 91.187478" />
    <ellipse
       ry="8.6651096"
       rx="8.6651125"
       cy="136.86093"
       cx="75.340103"
       style="fill:none;fill-opacity:1;stroke:#000000;stroke-width:1.32291651;stroke-linecap:round;stroke-linejoin:miter;stroke-miterlimit:4;stroke-dasharray:none;stroke-opacity:1" />
    <path
       d="m 81.567415,130.31251 h 4.854211"
       style="fill:none;stroke:#000000;stroke-width:1.32299995;stroke-linecap:round;stroke-linejoin:round;stroke-miterlimit:4;stroke-dasharray:none;stroke-opacity:1" />
    <ellipse
       ry="42.871952"
       rx="42.777473"
       cy="146.49933"
       cx="85.450958"
       style="fill:none;fill-opacity:1;stroke:#000000;stroke-width:1.32291651;stroke-linecap:round;stroke-linejoin:miter;stroke-miterlimit:4;stroke-dasharray:none;stroke-opacity:1" />
  </g>
</svg>
