<?xml version="1.0" encoding="UTF-8" standalone="no"?>
<svg
   width="90.256134mm"
   height="89.568069mm"
   viewBox="0 0 90.256134 89.568069"
   version="1.1">
  <g
     transform="translate(-40.057654,-101.99358)">
    <ellipse
       ry="44.122578"
       rx="44.46661"
       cy="146.77762"
       cx="85.185722"
       style="fill:none;fill-opacity:1;stroke:#000000;stroke-width:1.32291651;stroke-linecap:round;stroke-linejoin:miter;stroke-miterlimit:4;stroke-dasharray:none;stroke-opacity:1" />
    <path
       style="fill:none;fill-rule:evenodd;stroke:#000000;stroke-width:1.32291663;stroke-linecap:round;stroke-linejoin:miter;stroke-miterlimit:4;stroke-dasharray:none;stroke-opacity:1"
       d="m 57.540159,158.02728 c 0,0 -3.661187,13.2023 8.605674,19.91022 8.369997,4.57699 31.946817,5.57562 39.687497,0 10.79688,-7.777 7.42982,-19.80346 7.42982,-19.80346" />
    <path
       style="fill:none;fill-rule:evenodd;stroke:#000000;stroke-width:1.32291663;stroke-linecap:round;stroke-linejoin:miter;stroke-miterlimit:4;stroke-dasharray:none;stroke-opacity:1"
       d="m 66.840869,127.23823 c 0,0 1.950798,-15.44656 7.242464,-15.44656 5.291667,0 5.291665,13.22918 5.291665,13.22918" />
    <path
       d="m 102.73288,126.97096 c 0,0 -4.837055,-17.82513 -10.128713,-17.82513 -5.291661,0 -5.292036,15.87501 -5.292036,15.87501"
       style="fill:none;fill-rule:evenodd;stroke:#000000;stroke-width:1.32291663;stroke-linecap:round;stroke-linejoin:miter;stroke-miterlimit:4;stroke-dasharray:none;stroke-opacity:1" />
    <path
       style="fill:none;fill-rule:evenodd;stroke:#000000;stroke-width:1.32291663;stroke-linecap:round;stroke-linejoin:miter;stroke-miterlimit:4;stroke-dasharray:none;stroke-opacity:1"
       d="m 79.374998,125.02085 c 0,0 1.322918,-1.32292 3.968751,-1.32292 2.645834,0 3.968749,1.32292 3.968749,1.32292" />
    <ellipse
       style="fill:none;fill-opacity:1;stroke:#000000;stroke-width:1.32291663;stroke-linecap:round;stroke-linejoin:miter;stroke-miterlimit:4;stroke-dasharray:none;stroke-opacity:1"
       cx="75.340103"
       cy="141.96367"
       rx="6.5484385"
       ry="6.5484376" />
    <ellipse
       ry="6.5484376"
       rx="6.5484385"
       cy="141.96367"
       cx="96.506752"
       style="fill:none;fill-opacity:1;stroke:#000000;stroke-width:1.32291663;stroke-linecap:round;stroke-linejoin:miter;stroke-miterlimit:4;stroke-dasharray:none;stroke-opacity:1" />
    <ellipse
       ry="0.9921906"
       rx="0.99218857"
       cy="144.35158"
       cx="77.259506"
       style="fill:#000000;fill-opacity:1;stroke:#000000;stroke-width:1.32291675;stroke-linecap:round;stroke-linejoin:miter;stroke-miterlimit:4;stroke-dasharray:none;stroke-opacity:1" />
    <ellipse
       style="fill:#000000;fill-opacity:1;stroke:#000000;stroke-width:1.32291675;stroke-linecap:round;stroke-linejoin:miter;stroke-miterlimit:4;stroke-dasharray:none;stroke-opacity:1"
       cx="95.25528"
       cy="144.35158"
       rx="0.99218857"
       ry="0.9921906" />
    <path
       d="m 83.342773,154.12501 c 0,0 0.550428,1.32292 1.651283,1.32292 1.100856,0 1.651283,-1.32292 1.651283,-1.32292"
       style="fill:none;fill-rule:evenodd;stroke:#000000;stroke-width:1.32291675;stroke-linecap:round;stroke-linejoin:miter;stroke-miterlimit:4;stroke-dasharray:none;stroke-opacity:1" />
    <path
       d="m 57.541508,158.02728 c 0,0 -10.03265,-1.52508 -7.349911,-15.58088 1.143598,-5.9917 3.176845,-7.26184 6.550666,-10.48489 -0.102143,1.24001 -0.08801,2.67388 -0.08801,2.67388"
       style="fill:none;fill-opacity:1;fill-rule:evenodd;stroke:#000000;stroke-width:1.32299995;stroke-linecap:round;stroke-linejoin:round;stroke-miterlimit:4;stroke-dasharray:none;stroke-opacity:1" />
    <path
       style="fill:none;fill-opacity:1;fill-rule:evenodd;stroke:#000000;stroke-width:1.32291663;stroke-linecap:round;stroke-linejoin:round;stroke-miterlimit:4;stroke-dasharray:none;stroke-opacity:1"
       d="m 113.40145,157.86677 c 1.95624,-0.8151 15.91167,-13.67932 1.64097,-26.53077 -2.37955,-1.23256 -1.03319,0.92662 -1.03319,0.92662" />
    <ellipse
       style="fill:none;fill-opacity:1;stroke:#000000;stroke-width:1.32291651;stroke-linecap:round;stroke-linejoin:miter;stroke-miterlimit:4;stroke-dasharray:none;stroke-opacity:1"
       cx="101.79843"
       cy="142.15262"
       rx="13.550492"
       ry="13.550488" />
    <ellipse
       ry="15.17603"
       rx="15.297694"
       cy="142.15262"
       cx="101.79843"
       style="fill:none;fill-opacity:1;stroke:#000000;stroke-width:1.32291651;stroke-linecap:round;stroke-linejoin:miter;stroke-miterlimit:4;stroke-dasharray:none;stroke-opacity:1" />
    <ellipse
       ry="13.550488"
       rx="13.550492"
       cy="142.15262"
       cx="70.048454"
       style="fill:none;fill-opacity:1;stroke:#000000;stroke-width:1.32291651;stroke-linecap:round;stroke-linejoin:miter;stroke-miterlimit:4;stroke-dasharray:none;stroke-opacity:1" />
    <ellipse
       style="fill:none;fill-opacity:1;stroke:#000000;stroke-width:1.32291651;stroke-linecap:round;stroke-linejoin:miter;stroke-miterlimit:4;stroke-dasharray:none;stroke-opacity:1"
       cx="70.048454"
       cy="142.15262"
       rx="15.297694"
       ry="15.17603" />
  </g>
</svg>
